<svg xmlns="http://www.w3.org/2000/svg" x="0px" y="0px" width="14" height="14" viewBox="0 0 172 172">
    <g fill="none" fill-rule="nonzero" stroke="none" stroke-width="1" stroke-linecap="butt" stroke-linejoin="miter"
        stroke-miterlimit="10" stroke-dasharray="" stroke-dashoffset="0" font-family="none" font-weight="none"
        font-size="none" text-anchor="none" style="mix-blend-mode: normal">
        <path d="M0,172v-172h172v172z" fill="none"></path>
        <g fill="#272E31">
            <path
                d="M143.33333,0c-3.16643,0 -5.73333,2.5669 -5.73333,5.73333c0,3.16643 2.5669,5.73333 5.73333,5.73333c3.16643,0 5.73333,-2.5669 5.73333,-5.73333c0,-3.16643 -2.5669,-5.73333 -5.73333,-5.73333zM123.46823,11.46667c-3.16643,0 -5.73333,2.5669 -5.73333,5.73333c0,3.16643 2.5669,5.73333 5.73333,5.73333c3.16643,0 5.73333,-2.5669 5.73333,-5.73333c0,-3.16643 -2.5669,-5.73333 -5.73333,-5.73333zM163.19844,11.46667c-3.16643,0 -5.73333,2.5669 -5.73333,5.73333c0,3.16643 2.5669,5.73333 5.73333,5.73333c3.16643,0 5.73333,-2.5669 5.73333,-5.73333c0,-3.16643 -2.5669,-5.73333 -5.73333,-5.73333zM143.33333,17.2c-6.33287,0 -11.46667,5.1338 -11.46667,11.46667c0,6.33287 5.1338,11.46667 11.46667,11.46667c6.33287,0 11.46667,-5.1338 11.46667,-11.46667c0,-6.33287 -5.1338,-11.46667 -11.46667,-11.46667zM123.46823,34.4c-3.16643,0 -5.73333,2.5669 -5.73333,5.73333c0,3.16643 2.5669,5.73333 5.73333,5.73333c3.16643,0 5.73333,-2.5669 5.73333,-5.73333c0,-3.16643 -2.5669,-5.73333 -5.73333,-5.73333zM163.19844,34.4c-3.16643,0 -5.73333,2.5669 -5.73333,5.73333c0,3.16643 2.5669,5.73333 5.73333,5.73333c3.16643,0 5.73333,-2.5669 5.73333,-5.73333c0,-3.16643 -2.5669,-5.73333 -5.73333,-5.73333zM143.33333,45.86667c-3.16643,0 -5.73333,2.5669 -5.73333,5.73333c0,3.16643 2.5669,5.73333 5.73333,5.73333c3.16643,0 5.73333,-2.5669 5.73333,-5.73333c0,-3.16643 -2.5669,-5.73333 -5.73333,-5.73333zM68.8,57.33333c-4.52818,0.00306 -8.63048,2.67065 -10.47005,6.80833h-0.0112l-46.85208,90.65833h152.72839l-33.3138,-73.45833h-0.02239c-1.83792,-4.13397 -5.93474,-6.80085 -10.45886,-6.80833c-2.76277,0.00473 -5.43094,1.00678 -7.5138,2.82188l-0.0112,-0.0112l-9.70859,8.04011l7.5138,14.53489c1.45627,2.80933 0.35152,6.2703 -2.46354,7.72657c-0.83707,0.43 -1.73738,0.63828 -2.62031,0.63828c-2.07547,0 -4.08572,-1.12956 -5.10625,-3.10183l-21.20886,-41.04036h-0.02239c-1.83792,-4.13397 -5.93474,-6.80085 -10.45886,-6.80833z">
            </path>
        </g>
    </g>
</svg>